<?xml version="1.0" encoding="UTF-8" standalone="no"?>
<!-- Created with Inkscape (http://www.inkscape.org/) -->

<svg
   xmlns:dc="http://purl.org/dc/elements/1.1/"
   xmlns:cc="http://creativecommons.org/ns#"
   xmlns:rdf="http://www.w3.org/1999/02/22-rdf-syntax-ns#"
   xmlns:svg="http://www.w3.org/2000/svg"
   xmlns="http://www.w3.org/2000/svg"
   xmlns:sodipodi="http://sodipodi.sourceforge.net/DTD/sodipodi-0.dtd"
   xmlns:inkscape="http://www.inkscape.org/namespaces/inkscape"
   width="255.27299mm"
   height="30mm"
   viewBox="0 0 255.27299 30.000001"
   version="1.1"
   id="svg8"
   inkscape:version="0.92.4 (5da689c313, 2019-01-14)"
   sodipodi:docname="notesetters-inc-signature.svg">
  <defs
     id="defs2" />
  <sodipodi:namedview
     id="base"
     pagecolor="#ffffff"
     bordercolor="#000000"
     borderopacity="1"
     inkscape:pageopacity="0"
     inkscape:pageshadow="2"
     inkscape:zoom="1.560927"
     inkscape:cx="482.40566"
     inkscape:cy="56.692913"
     inkscape:document-units="mm"
     inkscape:current-layer="text12"
     showgrid="false"
     units="mm"
     inkscape:window-width="2000"
     inkscape:window-height="1046"
     inkscape:window-x="-9"
     inkscape:window-y="-9"
     inkscape:window-maximized="1"
     inkscape:pagecheckerboard="true" />
  <metadata
     id="metadata5">
    <rdf:RDF>
      <cc:Work
         rdf:about="">
        <dc:format>image/svg+xml</dc:format>
        <dc:type
           rdf:resource="http://purl.org/dc/dcmitype/StillImage" />
        <dc:title></dc:title>
      </cc:Work>
    </rdf:RDF>
  </metadata>
  <g
     inkscape:label="Layer 1"
     inkscape:groupmode="layer"
     id="layer1"
     transform="translate(0,-266.99998)">
    <g
       aria-label="Notesetters, Inc."
       transform="scale(1.0000985,0.99990152)"
       style="font-style:normal;font-variant:normal;font-weight:bold;font-stretch:normal;font-size:33.86338043px;line-height:1.25;font-family:'Helvetica LT Std';-inkscape-font-specification:'Helvetica LT Std, Bold';font-variant-ligatures:normal;font-variant-caps:normal;font-variant-numeric:normal;font-feature-settings:normal;text-align:start;letter-spacing:0px;word-spacing:0px;writing-mode:lr-tb;text-anchor:start;fill:#aa0000;fill-opacity:1;stroke:none;stroke-width:0.26455766"
       id="text12">
      <g
         id="g58"
         transform="matrix(0.1833333,0,0,0.1833333,1.028061e-7,242.57391)">
        <path
           id="path9"
           style="font-style:normal;font-variant:normal;font-weight:bold;font-stretch:normal;font-size:33.86338043px;font-family:'Helvetica LT Std';-inkscape-font-specification:'Helvetica LT Std, Bold';font-variant-ligatures:normal;font-variant-caps:normal;font-variant-numeric:normal;font-feature-settings:normal;text-align:start;writing-mode:lr-tb;text-anchor:start;fill:#aa0000;fill-opacity:1;stroke-width:0.26455766"
           d="m 15.069204,283.95799 h -0.06773 L 5.3504142,267.0263 H 1.2588501e-7 v 24.31391 H 4.7408734 v -17.33805 h 0.067727 l 9.9219706,17.33805 h 5.079507 V 267.0263 h -4.740874 z"
           inkscape:connector-curvature="0" />
        <path
           id="path11"
           style="font-style:normal;font-variant:normal;font-weight:bold;font-stretch:normal;font-size:33.86338043px;font-family:'Helvetica LT Std';-inkscape-font-specification:'Helvetica LT Std, Bold';font-variant-ligatures:normal;font-variant-caps:normal;font-variant-numeric:normal;font-feature-settings:normal;text-align:start;writing-mode:lr-tb;text-anchor:start;fill:#aa0000;fill-opacity:1;stroke-width:0.26455766"
           d="m 41.708045,282.33255 c 0,-6.50177 -4.368376,-9.48175 -9.210839,-9.48175 -4.842464,0 -9.21084,2.97998 -9.21084,9.48175 0,6.50177 4.368376,9.48175 9.21084,9.48175 4.842463,0 9.210839,-2.97998 9.210839,-9.48175 z m -4.876327,0 c 0,2.30271 -0.677267,5.48587 -4.334512,5.48587 -3.657245,0 -4.334513,-3.18316 -4.334513,-5.48587 0,-2.30271 0.677268,-5.48587 4.334513,-5.48587 3.657245,0 4.334512,3.18316 4.334512,5.48587 z"
           inkscape:connector-curvature="0" />
        <path
           id="path13"
           style="font-style:normal;font-variant:normal;font-weight:bold;font-stretch:normal;font-size:33.86338043px;font-family:'Helvetica LT Std';-inkscape-font-specification:'Helvetica LT Std, Bold';font-variant-ligatures:normal;font-variant-caps:normal;font-variant-numeric:normal;font-feature-settings:normal;text-align:start;writing-mode:lr-tb;text-anchor:start;fill:#aa0000;fill-opacity:1;stroke-width:0.26455766"
           d="m 50.354319,268.44856 h -4.740873 v 4.87633 h -2.438164 v 3.38634 h 2.438164 v 10.93787 c 0,2.33657 0.744994,3.89429 4.842463,3.89429 h 0.609541 c 0.744994,0 1.489989,-0.0339 2.234983,-0.0677 v -3.58951 c -0.338634,0.0339 -0.677268,0.0677 -0.982038,0.0677 -1.930213,0 -1.964076,-0.40636 -1.964076,-1.45612 v -9.78652 h 2.946114 v -3.38634 h -2.946114 z"
           inkscape:connector-curvature="0" />
        <path
           id="path15"
           style="font-style:normal;font-variant:normal;font-weight:bold;font-stretch:normal;font-size:33.86338043px;font-family:'Helvetica LT Std';-inkscape-font-specification:'Helvetica LT Std, Bold';font-variant-ligatures:normal;font-variant-caps:normal;font-variant-numeric:normal;font-feature-settings:normal;text-align:start;writing-mode:lr-tb;text-anchor:start;fill:#aa0000;fill-opacity:1;stroke-width:0.26455766"
           d="m 66.41773,286.05752 c -0.372497,1.28681 -1.727033,1.96408 -3.047704,1.96408 -3.826562,0 -4.097469,-3.04771 -4.232923,-4.40224 h 12.360134 v -0.84659 c 0,-8.2288 -4.91019,-9.92197 -8.465845,-9.92197 -7.890168,0 -8.635162,6.942 -8.635162,9.10925 0,7.41608 3.894289,9.85425 8.973796,9.85425 3.081567,0 6.671086,-1.42226 7.924031,-5.75678 z m -7.145173,-5.51973 c 0.270907,-2.37044 1.456125,-3.7927 3.691108,-3.7927 1.523852,0 3.386338,0.88045 3.657245,3.7927 z"
           inkscape:connector-curvature="0" />
        <path
           id="path17"
           style="font-style:normal;font-variant:normal;font-weight:bold;font-stretch:normal;font-size:33.86338043px;font-family:'Helvetica LT Std';-inkscape-font-specification:'Helvetica LT Std, Bold';font-variant-ligatures:normal;font-variant-caps:normal;font-variant-numeric:normal;font-feature-settings:normal;text-align:start;writing-mode:lr-tb;text-anchor:start;fill:#aa0000;fill-opacity:1;stroke-width:0.26455766"
           d="m 89.500388,278.81076 c -0.372498,-5.07951 -4.571557,-5.95996 -8.093348,-5.95996 -5.621321,0 -7.280627,3.38634 -7.280627,6.02769 0,6.73881 11.174915,4.46996 11.174915,7.4838 0,0.67727 -0.575677,1.86249 -3.01384,1.86249 -2.979978,0 -3.928153,-1.11749 -3.928153,-2.64134 h -4.876326 c 0.135453,4.8086 4.571556,6.23086 8.669025,6.23086 2.810661,0 7.890168,-0.94818 7.890168,-6.197 0,-6.63722 -11.276506,-4.57156 -11.276506,-7.41608 0,-0.77886 0.338634,-1.7609 2.912251,-1.7609 2.573617,0 2.979977,1.21908 3.183158,2.37044 z"
           inkscape:connector-curvature="0" />
        <path
           id="path19"
           style="font-style:normal;font-variant:normal;font-weight:bold;font-stretch:normal;font-size:33.86338043px;font-family:'Helvetica LT Std';-inkscape-font-specification:'Helvetica LT Std, Bold';font-variant-ligatures:normal;font-variant-caps:normal;font-variant-numeric:normal;font-feature-settings:normal;text-align:start;writing-mode:lr-tb;text-anchor:start;fill:#aa0000;fill-opacity:1;stroke-width:0.26455766"
           d="m 104.1172,286.05752 c -0.3725,1.28681 -1.72704,1.96408 -3.04771,1.96408 -3.82656,0 -4.097467,-3.04771 -4.23292,-4.40224 h 12.36013 v -0.84659 c 0,-8.2288 -4.91019,-9.92197 -8.46584,-9.92197 -7.890169,0 -8.635164,6.942 -8.635164,9.10925 0,7.41608 3.894289,9.85425 8.973794,9.85425 3.08157,0 6.67109,-1.42226 7.92403,-5.75678 z m -7.145177,-5.51973 c 0.270907,-2.37044 1.456126,-3.7927 3.691107,-3.7927 1.52385,0 3.38634,0.88045 3.65725,3.7927 z"
           inkscape:connector-curvature="0" />
        <path
           id="path21"
           style="font-style:normal;font-variant:normal;font-weight:bold;font-stretch:normal;font-size:33.86338043px;font-family:'Helvetica LT Std';-inkscape-font-specification:'Helvetica LT Std, Bold';font-variant-ligatures:normal;font-variant-caps:normal;font-variant-numeric:normal;font-feature-settings:normal;text-align:start;writing-mode:lr-tb;text-anchor:start;fill:#aa0000;fill-opacity:1;stroke-width:0.26455766"
           d="m 117.68424,268.44856 h -4.74087 v 4.87633 h -2.43817 v 3.38634 h 2.43817 v 10.93787 c 0,2.33657 0.74499,3.89429 4.84246,3.89429 h 0.60954 c 0.745,0 1.48999,-0.0339 2.23498,-0.0677 v -3.58951 c -0.33863,0.0339 -0.67726,0.0677 -0.98203,0.0677 -1.93022,0 -1.96408,-0.40636 -1.96408,-1.45612 v -9.78652 h 2.94611 v -3.38634 h -2.94611 z"
           inkscape:connector-curvature="0" />
        <path
           id="path23"
           style="font-style:normal;font-variant:normal;font-weight:bold;font-stretch:normal;font-size:33.86338043px;font-family:'Helvetica LT Std';-inkscape-font-specification:'Helvetica LT Std, Bold';font-variant-ligatures:normal;font-variant-caps:normal;font-variant-numeric:normal;font-feature-settings:normal;text-align:start;writing-mode:lr-tb;text-anchor:start;fill:#aa0000;fill-opacity:1;stroke-width:0.26455766"
           d="m 128.00199,268.44856 h -4.74087 v 4.87633 h -2.43817 v 3.38634 h 2.43817 v 10.93787 c 0,2.33657 0.74499,3.89429 4.84246,3.89429 h 0.60954 c 0.745,0 1.48999,-0.0339 2.23498,-0.0677 v -3.58951 c -0.33863,0.0339 -0.67726,0.0677 -0.98203,0.0677 -1.93022,0 -1.96408,-0.40636 -1.96408,-1.45612 v -9.78652 h 2.94611 v -3.38634 h -2.94611 z"
           inkscape:connector-curvature="0" />
        <path
           id="path25"
           style="font-style:normal;font-variant:normal;font-weight:bold;font-stretch:normal;font-size:33.86338043px;font-family:'Helvetica LT Std';-inkscape-font-specification:'Helvetica LT Std, Bold';font-variant-ligatures:normal;font-variant-caps:normal;font-variant-numeric:normal;font-feature-settings:normal;text-align:start;writing-mode:lr-tb;text-anchor:start;fill:#aa0000;fill-opacity:1;stroke-width:0.26455766"
           d="m 144.06541,286.05752 c -0.3725,1.28681 -1.72703,1.96408 -3.04771,1.96408 -3.82656,0 -4.09747,-3.04771 -4.23292,-4.40224 h 12.36014 v -0.84659 c 0,-8.2288 -4.91019,-9.92197 -8.46585,-9.92197 -7.89017,0 -8.63516,6.942 -8.63516,9.10925 0,7.41608 3.89429,9.85425 8.97379,9.85425 3.08157,0 6.67109,-1.42226 7.92403,-5.75678 z m -7.14518,-5.51973 c 0.27091,-2.37044 1.45613,-3.7927 3.69111,-3.7927 1.52386,0 3.38634,0.88045 3.65725,3.7927 z"
           inkscape:connector-curvature="0" />
        <path
           id="path27"
           style="font-style:normal;font-variant:normal;font-weight:bold;font-stretch:normal;font-size:33.86338043px;font-family:'Helvetica LT Std';-inkscape-font-specification:'Helvetica LT Std, Bold';font-variant-ligatures:normal;font-variant-caps:normal;font-variant-numeric:normal;font-feature-settings:normal;text-align:start;writing-mode:lr-tb;text-anchor:start;fill:#aa0000;fill-opacity:1;stroke-width:0.26455766"
           d="m 152.28204,291.34021 h 4.74087 v -9.38016 c 0,-1.99794 0.67727,-4.30065 4.36838,-4.30065 0.44022,0 0.94817,0 1.35453,0.0677 v -4.8086 c -0.30477,-0.0339 -0.60954,-0.0677 -0.91431,-0.0677 -2.87839,0 -3.96201,1.7609 -4.94405,3.58952 h -0.0677 v -3.11543 h -4.53769 z"
           inkscape:connector-curvature="0" />
        <path
           id="path29"
           style="font-style:normal;font-variant:normal;font-weight:bold;font-stretch:normal;font-size:33.86338043px;font-family:'Helvetica LT Std';-inkscape-font-specification:'Helvetica LT Std, Bold';font-variant-ligatures:normal;font-variant-caps:normal;font-variant-numeric:normal;font-feature-settings:normal;text-align:start;writing-mode:lr-tb;text-anchor:start;fill:#aa0000;fill-opacity:1;stroke-width:0.26455766"
           d="m 179.78069,278.81076 c -0.3725,-5.07951 -4.57155,-5.95996 -8.09335,-5.95996 -5.62132,0 -7.28062,3.38634 -7.28062,6.02769 0,6.73881 11.17491,4.46996 11.17491,7.4838 0,0.67727 -0.57568,1.86249 -3.01384,1.86249 -2.97998,0 -3.92815,-1.11749 -3.92815,-2.64134 h -4.87633 c 0.13546,4.8086 4.57156,6.23086 8.66903,6.23086 2.81066,0 7.89017,-0.94818 7.89017,-6.197 0,-6.63722 -11.27651,-4.57156 -11.27651,-7.41608 0,-0.77886 0.33863,-1.7609 2.91225,-1.7609 2.57362,0 2.97998,1.21908 3.18316,2.37044 z"
           inkscape:connector-curvature="0" />
        <path
           id="path31"
           style="font-style:normal;font-variant:normal;font-weight:bold;font-stretch:normal;font-size:33.86338043px;font-family:'Helvetica LT Std';-inkscape-font-specification:'Helvetica LT Std, Bold';font-variant-ligatures:normal;font-variant-caps:normal;font-variant-numeric:normal;font-feature-settings:normal;text-align:start;writing-mode:lr-tb;text-anchor:start;fill:#aa0000;fill-opacity:1;stroke-width:0.26455766"
           d="m 188.84391,286.39616 h -5.07951 v 4.94405 h 2.84452 c -0.16931,2.84452 -1.55771,3.45406 -2.84452,3.89429 v 1.79476 h 0.0339 c 2.87839,-0.67727 5.04565,-2.20112 5.04565,-6.36632 z"
           inkscape:connector-curvature="0" />
        <path
           id="path33"
           style="font-style:normal;font-variant:normal;font-weight:bold;font-stretch:normal;font-size:33.86338043px;font-family:'Helvetica LT Std';-inkscape-font-specification:'Helvetica LT Std, Bold';font-variant-ligatures:normal;font-variant-caps:normal;font-variant-numeric:normal;font-feature-settings:normal;text-align:start;writing-mode:lr-tb;text-anchor:start;fill:#aa0000;fill-opacity:1;stroke-width:0.26455766"
           d="m 206.30471,267.0263 h -5.07951 v 24.31391 h 5.07951 z"
           inkscape:connector-curvature="0" />
        <path
           id="path35"
           style="font-style:normal;font-variant:normal;font-weight:bold;font-stretch:normal;font-size:33.86338043px;font-family:'Helvetica LT Std';-inkscape-font-specification:'Helvetica LT Std, Bold';font-variant-ligatures:normal;font-variant-caps:normal;font-variant-numeric:normal;font-feature-settings:normal;text-align:start;writing-mode:lr-tb;text-anchor:start;fill:#aa0000;fill-opacity:1;stroke-width:0.26455766"
           d="m 226.93915,278.87849 c 0,-3.96202 -2.74294,-6.02769 -6.26473,-6.02769 -3.4202,0 -4.77473,2.03181 -5.41814,3.11544 h -0.0677 v -2.64135 h -4.5377 v 18.01532 h 4.74088 v -10.32833 c 0,-2.74293 1.62544,-4.1652 3.72497,-4.1652 3.01384,0 3.08157,2.23499 3.08157,3.55566 v 10.93787 h 4.74087 z"
           inkscape:connector-curvature="0" />
        <path
           id="path37"
           style="font-style:normal;font-variant:normal;font-weight:bold;font-stretch:normal;font-size:33.86338043px;font-family:'Helvetica LT Std';-inkscape-font-specification:'Helvetica LT Std, Bold';font-variant-ligatures:normal;font-variant-caps:normal;font-variant-numeric:normal;font-feature-settings:normal;text-align:start;writing-mode:lr-tb;text-anchor:start;fill:#aa0000;fill-opacity:1;stroke-width:0.26455766"
           d="m 242.05334,284.77071 c 0,0.84659 -0.81273,3.1493 -3.21703,3.1493 -3.58951,0 -3.65724,-3.89429 -3.65724,-5.85837 0,-2.23498 0.77886,-5.21496 3.75883,-5.21496 h 0.23705 c 2.0318,0 2.70907,1.7609 2.91225,2.91225 h 4.8086 c -0.44022,-5.62132 -5.11337,-6.90813 -7.9579,-6.90813 -6.0954,0 -8.63516,4.1652 -8.63516,9.9897 0,3.7927 1.55772,8.9738 8.33039,8.9738 6.60336,0 8.05949,-5.1811 8.22881,-7.04359 z"
           inkscape:connector-curvature="0" />
        <path
           id="path39"
           style="font-style:normal;font-variant:normal;font-weight:bold;font-stretch:normal;font-size:33.86338043px;font-family:'Helvetica LT Std';-inkscape-font-specification:'Helvetica LT Std, Bold';font-variant-ligatures:normal;font-variant-caps:normal;font-variant-numeric:normal;font-feature-settings:normal;text-align:start;writing-mode:lr-tb;text-anchor:start;fill:#aa0000;fill-opacity:1;stroke-width:0.26455766"
           d="m 255.24788,286.39616 h -5.0795 v 4.94405 h 5.0795 z"
           inkscape:connector-curvature="0" />
      </g>
    </g>
  </g>
</svg>
