<?xml version="1.0" encoding="UTF-8" standalone="no"?>
<!-- Created with Inkscape (http://www.inkscape.org/) -->

<svg
   xmlns:dc="http://purl.org/dc/elements/1.1/"
   xmlns:cc="http://creativecommons.org/ns#"
   xmlns:rdf="http://www.w3.org/1999/02/22-rdf-syntax-ns#"
   xmlns:svg="http://www.w3.org/2000/svg"
   xmlns="http://www.w3.org/2000/svg"
   xmlns:sodipodi="http://sodipodi.sourceforge.net/DTD/sodipodi-0.dtd"
   xmlns:inkscape="http://www.inkscape.org/namespaces/inkscape"
   width="231.94mm"
   height="30.683001mm"
   viewBox="0 0 231.94 30.683002"
   version="1.1"
   id="svg8"
   inkscape:version="0.92.3 (2405546, 2018-03-11)"
   sodipodi:docname="notesetters-inc.svg">
  <defs
     id="defs2" />
  <sodipodi:namedview
     id="base"
     pagecolor="#ffffff"
     bordercolor="#000000"
     borderopacity="1"
     inkscape:pageopacity="0"
     inkscape:pageshadow="2"
     inkscape:zoom="0.98994949"
     inkscape:cx="419.54704"
     inkscape:cy="-27.518126"
     inkscape:document-units="mm"
     inkscape:current-layer="layer1"
     showgrid="false"
     units="mm"
     inkscape:window-width="1920"
     inkscape:window-height="1025"
     inkscape:window-x="0"
     inkscape:window-y="28"
     inkscape:window-maximized="1"
     inkscape:pagecheckerboard="true" />
  <metadata
     id="metadata5">
    <rdf:RDF>
      <cc:Work
         rdf:about="">
        <dc:format>image/svg+xml</dc:format>
        <dc:type
           rdf:resource="http://purl.org/dc/dcmitype/StillImage" />
        <dc:title></dc:title>
      </cc:Work>
    </rdf:RDF>
  </metadata>
  <g
     inkscape:label="Layer 1"
     inkscape:groupmode="layer"
     id="layer1"
     transform="translate(0,-266.31698)">
    <g
       id="g116">
      <g
         id="text12"
         style="font-style:normal;font-variant:normal;font-weight:900;font-stretch:condensed;font-size:33.86666489px;line-height:1.25;font-family:'Helvetica LT Std';-inkscape-font-specification:'Helvetica LT Std, Heavy Condensed';font-variant-ligatures:normal;font-variant-caps:normal;font-variant-numeric:normal;font-feature-settings:normal;text-align:start;letter-spacing:0px;word-spacing:0px;writing-mode:lr-tb;text-anchor:start;fill:#aa0000;fill-opacity:1;stroke:none;stroke-width:0.26458332"
         aria-label="Notesetters, Inc.">
        <path
           id="path66"
           style="font-style:normal;font-variant:normal;font-weight:900;font-stretch:condensed;font-size:33.86666489px;font-family:'Helvetica LT Std';-inkscape-font-specification:'Helvetica LT Std, Heavy Condensed';font-variant-ligatures:normal;font-variant-caps:normal;font-variant-numeric:normal;font-feature-settings:normal;text-align:start;writing-mode:lr-tb;text-anchor:start;fill:#aa0000;fill-opacity:1;stroke-width:0.26458332"
           d="m 9.8213328,291.71677 h 6.0959992 v -25.4 h -5.655733 l 0.575734,14.19013 h -0.1016 L 6.1298663,266.31677 H -5.1498413e-8 v 25.4 H 5.655733 l -0.5418667,-14.15627 0.067733,-0.0677 z" />
        <path
           id="path68"
           style="font-style:normal;font-variant:normal;font-weight:900;font-stretch:condensed;font-size:33.86666489px;font-family:'Helvetica LT Std';-inkscape-font-specification:'Helvetica LT Std, Heavy Condensed';font-variant-ligatures:normal;font-variant-caps:normal;font-variant-numeric:normal;font-feature-settings:normal;text-align:start;writing-mode:lr-tb;text-anchor:start;fill:#aa0000;fill-opacity:1;stroke-width:0.26458332"
           d="m 18.817694,286.43357 c 0,4.33493 3.183466,5.8928 7.044266,5.8928 4.097867,0 6.773333,-1.59174 7.044266,-5.8928 v -7.7216 c 0,-4.2672 -2.302933,-6.5024 -7.044266,-6.5024 -4.1656,0 -7.044266,1.6256 -7.044266,6.5024 z m 5.3848,-8.128 c 0,-1.2192 0.4064,-2.20134 1.659466,-2.20134 1.253067,0 1.659467,0.98214 1.659467,2.20134 v 8.46666 c -0.1016,1.08374 -0.541867,1.65947 -1.659467,1.65947 -1.1176,0 -1.557866,-0.57573 -1.659466,-1.65947 z" />
        <path
           id="path70"
           style="font-style:normal;font-variant:normal;font-weight:900;font-stretch:condensed;font-size:33.86666489px;font-family:'Helvetica LT Std';-inkscape-font-specification:'Helvetica LT Std, Heavy Condensed';font-variant-ligatures:normal;font-variant-caps:normal;font-variant-numeric:normal;font-feature-settings:normal;text-align:start;writing-mode:lr-tb;text-anchor:start;fill:#aa0000;fill-opacity:1;stroke-width:0.26458332"
           d="m 36.868626,276.6461 v 10.9728 c 0,2.87867 1.591734,4.3688 4.504267,4.3688 1.185333,0 2.302933,-0.13547 3.4544,-0.3048 v -3.79307 c -0.575734,0 -0.778934,-0.0339 -1.388534,0.0677 -0.7112,0 -1.185333,-0.23707 -1.185333,-1.3208 v -9.99067 h 2.573867 v -3.89467 h -2.573867 v -5.41866 h -5.3848 v 5.41866 h -2.1336 v 3.89467 z" />
        <path
           id="path72"
           style="font-style:normal;font-variant:normal;font-weight:900;font-stretch:condensed;font-size:33.86666489px;font-family:'Helvetica LT Std';-inkscape-font-specification:'Helvetica LT Std, Heavy Condensed';font-variant-ligatures:normal;font-variant-caps:normal;font-variant-numeric:normal;font-feature-settings:normal;text-align:start;writing-mode:lr-tb;text-anchor:start;fill:#aa0000;fill-opacity:1;stroke-width:0.26458332"
           d="m 52.311295,279.55863 v -1.25306 c 0,-1.3208 0.372534,-2.54 1.896534,-2.54 1.388533,0 1.828799,1.25306 1.828799,1.9304 v 1.86266 z m 9.110133,3.556 v -5.41866 c 0,-4.09787 -3.488266,-5.52027 -7.247466,-5.4864 -4.1656,0.0339 -7.247466,1.6256 -7.247466,6.5024 v 7.7216 c 0,4.33493 3.386666,5.92666 7.247466,5.8928 4.6736,-0.0677 7.3152,-2.30294 7.044266,-7.17974 h -5.350933 c -0.1016,1.59174 0.1016,3.38667 -1.896533,3.28507 -1.185333,-0.0677 -1.659467,-0.94827 -1.659467,-1.99813 v -3.31894 z" />
        <path
           id="path74"
           style="font-style:normal;font-variant:normal;font-weight:900;font-stretch:condensed;font-size:33.86666489px;font-family:'Helvetica LT Std';-inkscape-font-specification:'Helvetica LT Std, Heavy Condensed';font-variant-ligatures:normal;font-variant-caps:normal;font-variant-numeric:normal;font-feature-settings:normal;text-align:start;writing-mode:lr-tb;text-anchor:start;fill:#aa0000;fill-opacity:1;stroke-width:0.26458332"
           d="m 76.932359,278.3733 c 0.2032,-4.19947 -2.9464,-6.16373 -6.874933,-6.16373 -3.7592,0 -7.0104,1.76106 -7.0104,5.85893 0,1.38853 0.440267,2.50613 1.354667,3.556 1.693333,1.9304 4.707466,2.7432 6.874933,3.89467 0.440266,0.33866 0.7112,0.88053 0.7112,1.45626 0,1.2192 -0.778934,1.79494 -1.9304,1.79494 -0.8128,0 -1.3208,-0.37254 -1.591733,-0.9144 -0.3048,-0.57574 -0.372534,-1.28694 -0.338667,-1.9304 h -5.147733 c -0.2032,4.572 2.777066,6.4008 7.044266,6.4008 3.9624,0 7.179733,-1.79494 7.179733,-6.02827 0,-4.50427 -3.7592,-5.41867 -7.247466,-7.0104 -0.8128,-0.4064 -1.659467,-0.9144 -1.659467,-1.9304 0,-1.1176 0.745067,-1.59173 1.794934,-1.59173 0.880533,0 1.286933,0.33866 1.490133,0.8128 0.237066,0.508 0.237066,1.15146 0.3048,1.79493 z" />
        <path
           id="path76"
           style="font-style:normal;font-variant:normal;font-weight:900;font-stretch:condensed;font-size:33.86666489px;font-family:'Helvetica LT Std';-inkscape-font-specification:'Helvetica LT Std, Heavy Condensed';font-variant-ligatures:normal;font-variant-caps:normal;font-variant-numeric:normal;font-feature-settings:normal;text-align:start;writing-mode:lr-tb;text-anchor:start;fill:#aa0000;fill-opacity:1;stroke-width:0.26458332"
           d="m 84.259732,279.55863 v -1.25306 c 0,-1.3208 0.372533,-2.54 1.896533,-2.54 1.388534,0 1.8288,1.25306 1.8288,1.9304 v 1.86266 z m 9.110133,3.556 v -5.41866 c 0,-4.09787 -3.488267,-5.52027 -7.247466,-5.4864 -4.1656,0.0339 -7.247467,1.6256 -7.247467,6.5024 v 7.7216 c 0,4.33493 3.386667,5.92666 7.247467,5.8928 4.673599,-0.0677 7.315199,-2.30294 7.044266,-7.17974 h -5.350933 c -0.1016,1.59174 0.1016,3.38667 -1.896533,3.28507 -1.185334,-0.0677 -1.659467,-0.94827 -1.659467,-1.99813 v -3.31894 z" />
        <path
           id="path78"
           style="font-style:normal;font-variant:normal;font-weight:900;font-stretch:condensed;font-size:33.86666489px;font-family:'Helvetica LT Std';-inkscape-font-specification:'Helvetica LT Std, Heavy Condensed';font-variant-ligatures:normal;font-variant-caps:normal;font-variant-numeric:normal;font-feature-settings:normal;text-align:start;writing-mode:lr-tb;text-anchor:start;fill:#aa0000;fill-opacity:1;stroke-width:0.26458332"
           d="m 97.061333,276.6461 v 10.9728 c 0,2.87867 1.591734,4.3688 4.504267,4.3688 1.18533,0 2.30293,-0.13547 3.4544,-0.3048 v -3.79307 c -0.57573,0 -0.77893,-0.0339 -1.38853,0.0677 -0.7112,0 -1.18534,-0.23707 -1.18534,-1.3208 V 276.6461 H 105.02 v -3.89467 h -2.57387 v -5.41866 h -5.384797 v 5.41866 h -2.1336 v 3.89467 z" />
        <path
           id="path80"
           style="font-style:normal;font-variant:normal;font-weight:900;font-stretch:condensed;font-size:33.86666489px;font-family:'Helvetica LT Std';-inkscape-font-specification:'Helvetica LT Std, Heavy Condensed';font-variant-ligatures:normal;font-variant-caps:normal;font-variant-numeric:normal;font-feature-settings:normal;text-align:start;writing-mode:lr-tb;text-anchor:start;fill:#aa0000;fill-opacity:1;stroke-width:0.26458332"
           d="m 108.37227,276.6461 v 10.9728 c 0,2.87867 1.59173,4.3688 4.50427,4.3688 1.18533,0 2.30293,-0.13547 3.4544,-0.3048 v -3.79307 c -0.57574,0 -0.77894,-0.0339 -1.38854,0.0677 -0.7112,0 -1.18533,-0.23707 -1.18533,-1.3208 v -9.99067 h 2.57387 v -3.89467 h -2.57387 v -5.41866 h -5.3848 v 5.41866 h -2.1336 v 3.89467 z" />
        <path
           id="path82"
           style="font-style:normal;font-variant:normal;font-weight:900;font-stretch:condensed;font-size:33.86666489px;font-family:'Helvetica LT Std';-inkscape-font-specification:'Helvetica LT Std, Heavy Condensed';font-variant-ligatures:normal;font-variant-caps:normal;font-variant-numeric:normal;font-feature-settings:normal;text-align:start;writing-mode:lr-tb;text-anchor:start;fill:#aa0000;fill-opacity:1;stroke-width:0.26458332"
           d="m 123.81494,279.55863 v -1.25306 c 0,-1.3208 0.37253,-2.54 1.89653,-2.54 1.38853,0 1.8288,1.25306 1.8288,1.9304 v 1.86266 z m 9.11013,3.556 v -5.41866 c 0,-4.09787 -3.48827,-5.52027 -7.24747,-5.4864 -4.16559,0.0339 -7.24746,1.6256 -7.24746,6.5024 v 7.7216 c 0,4.33493 3.38667,5.92666 7.24746,5.8928 4.6736,-0.0677 7.3152,-2.30294 7.04427,-7.17974 h -5.35093 c -0.1016,1.59174 0.1016,3.38667 -1.89654,3.28507 -1.18533,-0.0677 -1.65946,-0.94827 -1.65946,-1.99813 v -3.31894 z" />
        <path
           id="path84"
           style="font-style:normal;font-variant:normal;font-weight:900;font-stretch:condensed;font-size:33.86666489px;font-family:'Helvetica LT Std';-inkscape-font-specification:'Helvetica LT Std, Heavy Condensed';font-variant-ligatures:normal;font-variant-caps:normal;font-variant-numeric:normal;font-feature-settings:normal;text-align:start;writing-mode:lr-tb;text-anchor:start;fill:#aa0000;fill-opacity:1;stroke-width:0.26458332"
           d="m 135.49894,272.75143 v 18.96534 h 5.3848 v -11.684 c 0.1016,-1.55787 0.7112,-1.86267 2.2352,-1.86267 0.54187,0 1.08373,0.0339 1.6256,0.13547 v -6.096 c -2.2352,0 -3.556,1.38853 -4.1656,3.42053 h -0.0677 v -2.87867 z" />
        <path
           id="path86"
           style="font-style:normal;font-variant:normal;font-weight:900;font-stretch:condensed;font-size:33.86666489px;font-family:'Helvetica LT Std';-inkscape-font-specification:'Helvetica LT Std, Heavy Condensed';font-variant-ligatures:normal;font-variant-caps:normal;font-variant-numeric:normal;font-feature-settings:normal;text-align:start;writing-mode:lr-tb;text-anchor:start;fill:#aa0000;fill-opacity:1;stroke-width:0.26458332"
           d="m 159.74693,278.3733 c 0.2032,-4.19947 -2.9464,-6.16373 -6.87493,-6.16373 -3.7592,0 -7.0104,1.76106 -7.0104,5.85893 0,1.38853 0.44027,2.50613 1.35467,3.556 1.69333,1.9304 4.70746,2.7432 6.87493,3.89467 0.44027,0.33866 0.7112,0.88053 0.7112,1.45626 0,1.2192 -0.77893,1.79494 -1.9304,1.79494 -0.8128,0 -1.3208,-0.37254 -1.59173,-0.9144 -0.3048,-0.57574 -0.37254,-1.28694 -0.33867,-1.9304 h -5.14773 c -0.2032,4.572 2.77706,6.4008 7.04426,6.4008 3.9624,0 7.17974,-1.79494 7.17974,-6.02827 0,-4.50427 -3.7592,-5.41867 -7.24747,-7.0104 -0.8128,-0.4064 -1.65947,-0.9144 -1.65947,-1.9304 0,-1.1176 0.74507,-1.59173 1.79494,-1.59173 0.88053,0 1.28693,0.33866 1.49013,0.8128 0.23707,0.508 0.23707,1.15146 0.3048,1.79493 z" />
        <path
           id="path88"
           style="font-style:normal;font-variant:normal;font-weight:900;font-stretch:condensed;font-size:33.86666489px;font-family:'Helvetica LT Std';-inkscape-font-specification:'Helvetica LT Std, Heavy Condensed';font-variant-ligatures:normal;font-variant-caps:normal;font-variant-numeric:normal;font-feature-settings:normal;text-align:start;writing-mode:lr-tb;text-anchor:start;fill:#aa0000;fill-opacity:1;stroke-width:0.26458332"
           d="m 163.17964,296.99997 c 3.31893,-0.23707 5.72347,-1.7272 5.72347,-5.24934 v -5.82506 h -5.72347 v 5.7912 h 3.08187 c -0.0677,0.98213 -0.33867,1.8288 -0.88054,2.40453 -0.508,0.57573 -1.2192,0.9144 -2.20133,0.94827 z" />
        <path
           id="path90"
           style="font-style:normal;font-variant:normal;font-weight:900;font-stretch:condensed;font-size:33.86666489px;font-family:'Helvetica LT Std';-inkscape-font-specification:'Helvetica LT Std, Heavy Condensed';font-variant-ligatures:normal;font-variant-caps:normal;font-variant-numeric:normal;font-feature-settings:normal;text-align:start;writing-mode:lr-tb;text-anchor:start;fill:#aa0000;fill-opacity:1;stroke-width:0.26458332"
           d="m 187.86791,291.71677 v -25.4 h -5.96053 v 25.4 z" />
        <path
           id="path92"
           style="font-style:normal;font-variant:normal;font-weight:900;font-stretch:condensed;font-size:33.86666489px;font-family:'Helvetica LT Std';-inkscape-font-specification:'Helvetica LT Std, Heavy Condensed';font-variant-ligatures:normal;font-variant-caps:normal;font-variant-numeric:normal;font-feature-settings:normal;text-align:start;writing-mode:lr-tb;text-anchor:start;fill:#aa0000;fill-opacity:1;stroke-width:0.26458332"
           d="m 191.23236,272.75143 v 18.96534 h 5.3848 V 278.1701 c 0,-0.98213 0.508,-1.524 1.45627,-1.55787 1.016,-0.0677 1.35466,0.67734 1.4224,1.55787 v 13.54667 h 5.3848 v -15.5448 c 0,-2.57387 -2.26907,-3.9624 -4.80907,-3.9624 -1.69333,0 -3.2512,1.45626 -3.7592,2.91253 h -0.0677 v -2.37067 z" />
        <path
           id="path94"
           style="font-style:normal;font-variant:normal;font-weight:900;font-stretch:condensed;font-size:33.86666489px;font-family:'Helvetica LT Std';-inkscape-font-specification:'Helvetica LT Std, Heavy Condensed';font-variant-ligatures:normal;font-variant-caps:normal;font-variant-numeric:normal;font-feature-settings:normal;text-align:start;writing-mode:lr-tb;text-anchor:start;fill:#aa0000;fill-opacity:1;stroke-width:0.26458332"
           d="m 221.94943,279.7957 c 0.3048,-5.21547 -1.79494,-7.5184 -7.112,-7.58613 -4.1656,0 -6.67174,1.6256 -6.67174,6.5024 v 7.7216 c 0,4.33493 2.81094,5.8928 6.67174,5.8928 0.8128,0 1.28693,-0.0677 1.79493,-0.1016 2.3368,-0.23707 4.3688,-1.3208 5.08,-3.69147 0.3048,-1.016 0.44027,-3.38667 0.44027,-4.50427 h -5.21547 c 0,1.4224 0.33867,4.40267 -1.65947,4.40267 -1.38853,0 -1.7272,-1.016 -1.7272,-2.20133 v -7.8232 c 0,-1.2192 0.23707,-2.30294 1.6256,-2.30294 0.8128,0 1.2192,0.4064 1.45627,1.18534 0.13547,0.7112 0.1016,1.45626 0.2032,2.16746 l 0.0339,0.33867 z" />
        <path
           id="path96"
           style="font-style:normal;font-variant:normal;font-weight:900;font-stretch:condensed;font-size:33.86666489px;font-family:'Helvetica LT Std';-inkscape-font-specification:'Helvetica LT Std, Heavy Condensed';font-variant-ligatures:normal;font-variant-caps:normal;font-variant-numeric:normal;font-feature-settings:normal;text-align:start;writing-mode:lr-tb;text-anchor:start;fill:#aa0000;fill-opacity:1;stroke-width:0.26458332"
           d="m 231.94008,291.71677 v -5.7912 h -5.72347 v 5.7912 z" />
      </g>
    </g>
  </g>
</svg>
